HIERARCHY
ROOT Hips
{
	OFFSET 53.173599 -3.258324 83.802498
	CHANNELS 6 Xposition Yposition Zposition Xrotation Yrotation Zrotation
	JOINT spine
	{
		OFFSET 0.000000 -0.342408 5.954384
		CHANNELS 3 Xrotation Yrotation Zrotation
		JOINT spine1
		{
			OFFSET 0.000000 -0.000001 8.856018
			CHANNELS 3 Xrotation Yrotation Zrotation
			JOINT spine2
			{
				OFFSET 0.000000 -0.000001 8.485672
				CHANNELS 3 Xrotation Yrotation Zrotation
				JOINT Neck
				{
					OFFSET 0.000000 -1.038704 21.786301
					CHANNELS 3 Xrotation Yrotation Zrotation
					JOINT Head
					{
						OFFSET 0.000000 -0.000001 6.582199
						CHANNELS 3 Xrotation Yrotation Zrotation
						End Site
						{
							OFFSET 0.000000 5.254357 15.932602
						}
					}
				}
				JOINT RightShoulder
				{
					OFFSET -3.573071 0.497524 9.163864
					CHANNELS 3 Xrotation Yrotation Zrotation
					JOINT RightArm
					{
						OFFSET 0.000000 -0.000002 12.019196
						CHANNELS 3 Xrotation Yrotation Zrotation
						JOINT RightArmRoll
						{
							OFFSET 0.000000 -0.000001 6.067551
							CHANNELS 3 Xrotation Yrotation Zrotation
							JOINT RightForeArm
							{
								OFFSET 0.000000 -0.000003 17.672607
								CHANNELS 3 Xrotation Yrotation Zrotation
								JOINT RightForeArmRoll
								{
									OFFSET 0.000000 -0.000001 6.808716
									CHANNELS 3 Xrotation Yrotation Zrotation
									JOINT RightHand
									{
										OFFSET 0.000000 -0.000002 13.663605
										CHANNELS 3 Xrotation Yrotation Zrotation
										End Site
										{
											OFFSET 0.000000 0.000000 0.100006
										}
									}
								}
							}
						}
					}
				}
				JOINT LeftShoulder
				{
					OFFSET 3.573071 0.497524 9.163864
					CHANNELS 3 Xrotation Yrotation Zrotation
					JOINT LeftArm
					{
						OFFSET 0.000000 -0.000002 12.019196
						CHANNELS 3 Xrotation Yrotation Zrotation
						JOINT LeftArmRoll
						{
							OFFSET 0.000000 -0.000001 6.067551
							CHANNELS 3 Xrotation Yrotation Zrotation
							JOINT LeftForeArm
							{
								OFFSET 0.000000 -0.000003 17.672607
								CHANNELS 3 Xrotation Yrotation Zrotation
								JOINT LeftForeArmRoll
								{
									OFFSET 0.000000 -0.000001 6.808716
									CHANNELS 3 Xrotation Yrotation Zrotation
									JOINT LeftHand
									{
										OFFSET 0.000000 -0.000002 13.663605
										CHANNELS 3 Xrotation Yrotation Zrotation
										End Site
										{
											OFFSET 0.000000 0.000000 0.100006
										}
									}
								}
							}
						}
					}
				}
			}
		}
	}
	JOINT RightUpLeg
	{
		OFFSET -5.277740 0.811858 -0.967796
		CHANNELS 3 Xrotation Yrotation Zrotation
		JOINT RightUpLegRoll
		{
			OFFSET 0.000000 -0.000003 16.021400
			CHANNELS 3 Xrotation Yrotation Zrotation
			JOINT RightLeg
			{
				OFFSET 0.000000 0.000003 -19.840096
				CHANNELS 3 Xrotation Yrotation Zrotation
				JOINT RightLegRoll
				{
					OFFSET 0.000000 -0.000003 19.904999
					CHANNELS 3 Xrotation Yrotation Zrotation
					JOINT RightFoot
					{
						OFFSET 0.000000 -0.000003 16.567497
						CHANNELS 3 Xrotation Yrotation Zrotation
						JOINT RightToeBase
						{
							OFFSET 0.000000 -0.000002 13.849602
							CHANNELS 3 Xrotation Yrotation Zrotation
							End Site
							{
								OFFSET 0.005871 0.773116 6.707275
							}
						}
					}
				}
			}
		}
	}
	JOINT LeftUpLeg
	{
		OFFSET 5.277740 0.811858 -0.967796
		CHANNELS 3 Xrotation Yrotation Zrotation
		JOINT LeftUpLegRoll
		{
			OFFSET 0.000000 -0.000003 16.021500
			CHANNELS 3 Xrotation Yrotation Zrotation
			JOINT LeftLeg
			{
				OFFSET 0.000000 -0.000003 19.839996
				CHANNELS 3 Xrotation Yrotation Zrotation
				JOINT LeftLegRoll
				{
					OFFSET 0.000000 -0.000003 20.089005
					CHANNELS 3 Xrotation Yrotation Zrotation
					JOINT LeftFoot
					{
						OFFSET 0.000000 -0.000003 16.383499
						CHANNELS 3 Xrotation Yrotation Zrotation
						JOINT LeftToeBase
						{
							OFFSET 0.000000 -0.000002 13.849594
							CHANNELS 3 Xrotation Yrotation Zrotation
							End Site
							{
								OFFSET -0.026310 0.773116 6.707275
							}
						}
					}
				}
			}
		}
	}
}
MOTION
Frames: 4
Frame Time: 0.041667
51.244900 -3.911974 97.365997 5.457458 -2.480421 9.621792 -0.483550 0.502761 0.118704 3.034779 1.005548 0.231718 4.679964 1.008248 0.219654 -17.433957 6.378785 -8.818800 7.392806 -11.746801 -9.594667 -10.184440 -65.128360 -12.318213 -30.777604 -122.481835 -44.913654 0.000000 -0.000000 0.000000 -0.027158 3.639890 -1.990775 0.000001 0.000012 -3.011612 -5.000153 -7.999919 0.000004 -10.697143 48.255840 11.977781 -20.735635 137.456546 48.302265 0.000001 0.000013 0.000001 -0.026759 -3.640560 1.990720 -0.000001 -0.000005 3.011600 -5.000172 7.999938 -0.000011 -17.199948 -175.471084 0.749997 -179.999991 0.000005 -0.962997 158.091381 0.776554 -0.824707 0.000001 0.000009 0.392495 70.518042 6.833672 2.183686 25.456948 -7.355625 0.000005 -16.882146 -173.855471 5.502402 -0.000004 -0.000004 -0.914264 -23.284706 -1.365999 0.474487 0.000006 -0.000003 -0.223209 68.127380 -6.933290 -2.072777 25.456947 7.355613 -0.000000 
51.320000 -3.898834 97.161499 5.402123 -2.565879 9.618032 -0.475591 0.522121 0.118072 3.050678 1.044279 0.228827 4.695873 1.046945 0.216298 -17.086649 6.150491 -8.858941 7.199594 -11.532930 -9.576463 -10.178984 -65.332733 -12.323086 -30.959950 -122.366404 -44.973565 0.000000 -0.000000 -0.000004 -0.027157 3.639889 -1.990777 0.000000 0.000012 -3.011610 -5.000152 -7.999917 0.000003 -10.635182 48.119243 11.890902 -20.641834 137.552483 48.314204 0.000001 0.000013 0.000004 -0.026759 -3.640560 1.990721 -0.000002 -0.000005 3.011600 -5.000172 7.999938 -0.000013 -17.080893 -175.342895 0.818287 -179.999991 0.000005 -0.960005 158.280960 0.727416 -0.823257 0.000001 0.000009 0.390848 70.551606 6.832360 2.185195 25.456955 -7.355623 0.000005 -16.678077 -173.753032 5.538718 -0.000004 -0.000004 -0.908081 -22.975513 -1.336970 0.470834 0.000006 -0.000003 -0.215538 68.099698 -6.931835 -2.079232 25.456950 7.355614 -0.000000 
51.289799 -3.927122 96.948990 5.344019 -2.649272 9.613636 -0.467292 0.541038 0.117488 3.067258 1.082118 0.225943 4.712454 1.084752 0.212960 -16.740797 5.923526 -8.897099 7.007692 -11.320122 -9.557428 -10.173787 -65.534989 -12.328106 -31.141162 -122.255004 -45.034098 0.000000 0.000000 0.000001 -0.027158 3.639890 -1.990775 0.000000 0.000012 -3.011612 -5.000152 -7.999917 0.000001 -10.577236 47.982253 11.808871 -20.548359 137.646562 48.324777 0.000001 0.000013 -0.000001 -0.026758 -3.640560 1.990721 -0.000001 -0.000005 3.011601 -5.000172 7.999938 -0.000011 -16.961737 -175.216468 0.887839 -179.999991 0.000005 -0.956002 158.461727 0.677169 -0.821743 0.000002 0.000009 0.389251 70.584029 6.831103 2.186687 25.456957 -7.355624 0.000005 -16.474459 -173.654308 5.573673 -0.000002 -0.000004 -0.902148 -22.675046 -1.308705 0.467260 0.000006 -0.000003 -0.208160 68.072739 -6.930344 -2.085834 25.456952 7.355614 -0.000000 
51.343899 -3.902694 96.738510 5.284144 -2.730345 9.608808 -0.458802 0.559415 0.116934 3.084229 1.118877 0.223091 4.729438 1.121469 0.209668 -16.396935 5.699734 -8.932747 6.816999 -11.110085 -9.537605 -10.168874 -65.733502 -12.333195 -31.321977 -122.146732 -45.097635 0.000000 -0.000001 -0.000003 -0.027157 3.639889 -1.990777 0.000000 0.000012 -3.011609 -5.000153 -7.999919 0.000005 -10.523037 47.846315 11.731475 -20.456309 137.737991 48.334090 0.000001 0.000013 0.000002 -0.026759 -3.640560 1.990721 -0.000001 -0.000005 3.011601 -5.000173 7.999938 -0.000011 -16.843429 -175.093771 0.958017 -179.999991 0.000005 -0.952998 158.633356 0.626748 -0.820804 0.000002 0.000009 0.387727 70.615407 6.829907 2.188056 25.456953 -7.355625 0.000005 -16.273209 -173.559410 5.607473 -0.000003 -0.000004 -0.896478 -22.384704 -1.281395 0.463744 0.000006 -0.000003 -0.201091 68.046531 -6.928853 -2.092294 25.456955 7.355613 -0.000000 
